<svg width="101" height="100" viewBox="0 0 101 100" fill="none" xmlns="http://www.w3.org/2000/svg">
<path d="M39.2111 53.3175C43.6143 53.3175 47.1838 56.887 47.1838 61.2902C47.1838 65.6935 43.6143 69.263 39.2111 69.263C34.8078 69.263 31.2383 65.6935 31.2383 61.2902C31.2383 56.887 34.8078 53.3175 39.2111 53.3175Z" fill="#FFFF57"/>
<path d="M80.0715 36.3753C83.3739 36.3753 86.0511 39.0525 86.0511 42.3549C86.0511 45.6573 83.3739 48.3345 80.0715 48.3345C76.7691 48.3345 74.0919 45.6573 74.0919 42.3549C74.0919 39.0525 76.7691 36.3753 80.0715 36.3753Z" fill="#FFFF57"/>
<path d="M58.1454 36.3753C61.0036 36.3753 63.3916 38.381 63.9829 41.0615L56.3439 36.6507C56.9124 36.4714 57.5177 36.3753 58.1454 36.3753Z" fill="#FFFF57"/>
<path d="M58.1464 14.4502C61.4488 14.4502 64.126 17.1273 64.126 20.4298C64.126 23.7322 61.4488 26.4094 58.1464 26.4094C54.844 26.4094 52.1668 23.7322 52.1668 20.4298C52.1668 17.1273 54.844 14.4502 58.1464 14.4502Z" fill="#FFFF57"/>
<path d="M80.0715 14.4502C83.3739 14.4502 86.0511 17.1273 86.0511 20.4298C86.0511 23.7322 83.3739 26.4094 80.0715 26.4094C76.7691 26.4094 74.0919 23.7322 74.0919 20.4298C74.0919 17.1273 76.7691 14.4502 80.0715 14.4502Z" fill="#FFFF57"/>
<path fill-rule="evenodd" clip-rule="evenodd" d="M89.0391 0C95.3686 0.000224588 100.5 5.13134 100.5 11.4609V51.3247C100.5 57.6542 95.3686 62.7853 89.0391 62.7856H74.5651L56.4113 94.2299C53.2465 99.7116 46.2365 101.589 40.7548 98.4246L6.2321 78.4927C0.750468 75.3278 -1.12736 68.3188 2.03744 62.8372L21.9694 28.3135C25.1343 22.8321 32.1434 20.9541 37.6249 24.1188L37.7144 24.1704V11.4609C37.7144 5.1312 42.8456 1.60516e-07 49.1753 0H89.0391ZM36.13 26.7076C32.0784 24.3685 26.8974 25.7569 24.5582 29.8084L4.62626 64.332C2.28721 68.3837 3.67542 73.5647 7.727 75.9039L42.2497 95.8358C46.3013 98.175 51.4822 96.7865 53.8215 92.735L73.7535 58.2114C76.0925 54.1597 74.7043 48.9787 70.6527 46.6395L36.13 26.7076ZM49.1753 2.98979C44.4968 2.98979 40.7042 6.78242 40.7042 11.4609V25.8959L72.1476 44.0507C77.6291 47.2155 79.5078 54.2247 76.3432 59.7062L76.2917 59.7958H89.0391C93.7174 59.7956 97.5102 56.003 97.5102 51.3247V11.4609C97.5102 6.78256 93.7174 2.99001 89.0391 2.98979H49.1753Z" fill="white"/>
</svg>
