<svg width="16" height="16" viewBox="0 0 16 16" fill="none" xmlns="http://www.w3.org/2000/svg">
<path d="M5.68479 13.1652L11.6849 7.16502L8.83498 4.31507L2.83484 10.3152C2.75224 10.3979 2.69356 10.5014 2.66503 10.6148L2 14L5.38456 13.335C5.4982 13.3066 5.60215 13.2478 5.68479 13.1652ZM13.6219 5.22803C13.864 4.98588 14 4.65748 14 4.31507C14 3.97266 13.864 3.64426 13.6219 3.4021L12.5979 2.37808C12.3557 2.136 12.0273 2 11.6849 2C11.3425 2 11.0141 2.136 10.772 2.37808L9.74795 3.4021L12.5979 6.25206L13.6219 5.22803Z" fill="white"/>
</svg>
