<svg width="16" height="16" viewBox="0 0 16 16" fill="none" xmlns="http://www.w3.org/2000/svg">
<path d="M1.87324 2.08771C3.82206 0.483984 6.28378 0.785442 7.99922 2.11603C9.70999 0.785276 12.1403 0.504104 14.1076 2.07892C16.3287 3.85718 16.6043 6.91744 14.884 9.04962C14.2554 9.82867 13.0452 10.9815 11.9025 12.0203C11.3212 12.5489 10.7402 13.0631 10.2336 13.5057L9.00898 14.5633C8.95738 14.6073 8.87527 14.678 8.79512 14.7361C8.70252 14.8033 8.56147 14.8925 8.37129 14.9471C8.1877 14.9997 7.99442 15.0125 7.80586 14.9861L7.61934 14.9471C7.42937 14.8925 7.28816 14.8033 7.19551 14.7361L6.98164 14.5633C6.4103 14.076 5.25157 13.0771 4.08906 12.0203C2.94628 10.9814 1.73533 9.82877 1.10664 9.04962C-0.62295 6.90587 -0.293463 3.87083 1.87324 2.08771Z" fill="#FF5757"/>
</svg>
