<svg width="101" height="100" viewBox="0 0 101 100" fill="none" xmlns="http://www.w3.org/2000/svg">
<path fill-rule="evenodd" clip-rule="evenodd" d="M82.6096 1C83.7932 1.00003 84.9115 1.5482 85.6428 2.48644L94.735 14.1531C96.2528 16.1006 95.5606 18.7379 93.7171 19.8786L85.7943 39.4833C85.981 39.6222 86.1568 39.778 86.3179 39.9512L96.4565 50.8537C97.2457 51.7024 97.6168 52.8629 97.4676 54.0165L92.086 95.6139C91.8354 97.5508 90.1984 98.9999 88.2609 99H12.7391C10.8016 98.9999 9.16459 97.5508 8.914 95.6139L3.53239 54.0165C3.38321 52.8629 3.75426 51.7024 4.54347 50.8537L14.6821 39.9512C14.8432 39.778 15.019 39.6222 15.2057 39.4833L7.28287 19.8786C5.4394 18.7379 4.74718 16.1006 6.26501 14.1531L15.3572 2.48644C16.0885 1.5482 17.2068 1.00003 18.3904 1H82.6096ZM20.2589 55.0556L24.5224 95.8889H76.4776L80.7411 55.0556H20.2589ZM11.9744 95.2114C12.0245 95.5987 12.3517 95.8888 12.7391 95.8889H21.4191L17.1556 55.0556H6.77884L11.9744 95.2114ZM79.5809 95.8889H88.2609C88.6483 95.8888 88.9755 95.5987 89.0256 95.2114L94.2212 55.0556H83.8444L79.5809 95.8889ZM17.4961 41.8333C17.2829 41.8333 17.0792 41.9226 16.9333 42.0794L7.75978 51.9444H93.2402L84.0667 42.0794C83.9208 41.9226 83.7171 41.8333 83.5039 41.8333H17.4961ZM10.8442 20.4444L18.2307 38.7222H82.7693L90.1558 20.4444H10.8442ZM32.2004 4.11111L21.7084 17.3333H79.2916L68.7996 4.11111H32.2004ZM18.3904 4.11111C18.1538 4.11114 17.9302 4.22066 17.7839 4.40809L8.69099 16.0748C8.29327 16.5851 8.65449 17.3333 9.29824 17.3333H17.7575L28.2495 4.11111H18.3904ZM83.2425 17.3333H91.7018C92.3455 17.3333 92.7067 16.5851 92.309 16.0748L83.2161 4.40809C83.0698 4.22066 82.8462 4.11114 82.6096 4.11111H72.7505L83.2425 17.3333Z" fill="white"/>
<path d="M50.5616 60.8887L50.7996 60.8947C53.2455 61.0197 55.1905 63.0585 55.1905 65.5553C55.1905 66.8461 54.67 68.0138 53.8298 68.8586L55.1905 81.8887H45.8105L47.1712 68.8586C46.3311 68.0138 45.8105 66.8461 45.8105 65.5553C45.8105 62.978 47.883 60.8887 50.4395 60.8887H50.5616Z" fill="#FFFF57"/>
</svg>
