<svg width="16" height="16" viewBox="0 0 16 16" fill="none" xmlns="http://www.w3.org/2000/svg">
<g clip-path="url(#clip0_937_10563)">
<path fill-rule="evenodd" clip-rule="evenodd" d="M6.42765 0.333008C3.06482 0.333008 0.333984 3.0374 0.333984 6.37923C0.333984 9.72106 3.06482 12.4255 6.42765 12.4255C7.6814 12.4255 8.84765 12.0494 9.81693 11.4047L13.7923 15.3473C14.2213 15.7727 14.9156 15.7727 15.3445 15.3473C15.7749 14.9204 15.7749 14.2271 15.3445 13.8002L11.3945 9.88279C12.1038 8.89455 12.5213 7.68498 12.5213 6.37923C12.5213 3.0374 9.79049 0.333008 6.42765 0.333008ZM2.53182 6.37923C2.53182 4.24945 4.27344 2.51823 6.42765 2.51823C8.58187 2.51823 10.3235 4.24945 10.3235 6.37923C10.3235 8.50901 8.58187 10.2402 6.42765 10.2402C4.27344 10.2402 2.53182 8.50901 2.53182 6.37923Z" fill="white"/>
</g>
<defs>
<clipPath id="clip0_937_10563">
<rect width="16" height="16" fill="white"/>
</clipPath>
</defs>
</svg>
