<svg width="16" height="16" viewBox="0 0 16 16" fill="none" xmlns="http://www.w3.org/2000/svg">
<g clip-path="url(#clip0_937_10410)">
<path fill-rule="evenodd" clip-rule="evenodd" d="M10.4466 6.33246C9.90366 6.25355 9.43431 5.91247 9.1916 5.42041L8 3.00466L6.80839 5.42041C6.56568 5.91247 6.09634 6.25355 5.55338 6.33246L2.88661 6.72003L4.81662 8.60171C5.20938 8.98464 5.38857 9.53632 5.2958 10.077L4.84017 12.732L7.22439 11.4785C7.70995 11.2232 8.29004 11.2232 8.7756 11.4785L11.1598 12.732L10.7042 10.077C10.6114 9.53632 10.7906 8.98464 11.1834 8.60171L13.1134 6.72003L10.4466 6.33246ZM15.4828 5.38021C15.8134 5.42932 16.0438 5.73536 15.9928 6.06596C15.9739 6.19819 15.9116 6.3191 15.8172 6.41166L12.3468 9.79507L13.1667 14.5726C13.2234 14.9013 13.0024 15.2131 12.6737 15.2697C12.5433 15.2924 12.4073 15.2716 12.2902 15.2093L8 12.9537L3.70981 15.2093C3.61008 15.2619 3.49758 15.2856 3.38508 15.2776C3.27257 15.2696 3.16457 15.2302 3.07331 15.1639C2.98205 15.0976 2.91119 15.0071 2.86877 14.9026C2.82634 14.7981 2.81404 14.6838 2.83327 14.5726L3.65314 9.79507L0.182837 6.41166C0.0679217 6.29965 0.00217853 6.14659 5.31709e-05 5.98613C-0.00207219 5.82566 0.0595942 5.67092 0.171502 5.55589C0.264069 5.46144 0.384972 5.3991 0.51721 5.38021L5.31367 4.68312L7.45782 0.33627C7.60706 0.0377893 7.96977 -0.0850032 8.26825 0.0623478C8.38726 0.12091 8.48361 0.217255 8.54217 0.33627L10.6863 4.68312L15.4828 5.38021Z" fill="#FFFF57"/>
</g>
<defs>
<clipPath id="clip0_937_10410">
<rect width="16" height="16" fill="white"/>
</clipPath>
</defs>
</svg>
