<svg width="12" height="12" viewBox="0 0 12 12" fill="none" xmlns="http://www.w3.org/2000/svg">
<path d="M6.20072 0H6.19977C3.72022 0 2.48019 3.45111e-05 2.11872 0.779297C2.08772 0.846166 2.06167 0.915917 2.04059 0.987305C1.79515 1.81962 2.67186 2.78449 4.42536 4.71387L5.59918 6L4.42536 7.28613C2.67187 9.21549 1.79515 10.1804 2.04059 11.0127C2.06167 11.0841 2.08772 11.1538 2.11872 11.2207C2.48019 12 3.72023 12 6.19977 12H6.20076C8.67967 12 9.9195 12 10.2808 11.2207C10.3119 11.1538 10.3379 11.0841 10.3589 11.0127C10.6044 10.1804 9.72764 9.21544 7.97418 7.28613L6.79938 6L7.97418 4.71387C9.72763 2.78455 10.6044 1.81961 10.3589 0.987305C10.3379 0.915878 10.3119 0.8462 10.2808 0.779297C9.91951 0 8.67966 0 6.20072 0Z" fill="white"/>
</svg>
