<svg width="16" height="16" viewBox="0 0 16 16" fill="none" xmlns="http://www.w3.org/2000/svg">
<path d="M12.4462 2.00187C12.8758 1.57229 13.5723 1.57229 14.0019 2.00187C14.4306 2.43134 14.4308 3.12716 14.0019 3.55656L9.55656 8.00089L14.0019 12.4462C14.4308 12.8758 14.4312 13.5725 14.0019 14.0019C13.5725 14.4312 12.8758 14.4308 12.4462 14.0019L8.00089 9.55656L3.55656 14.0019C3.12716 14.4308 2.43134 14.4306 2.00187 14.0019C1.57229 13.5723 1.57229 12.8758 2.00187 12.4462L6.44621 8.00089L2.00187 3.55656C1.57229 3.12698 1.57229 2.43145 2.00187 2.00187C2.43145 1.57229 3.12698 1.57229 3.55656 2.00187L8.00089 6.44621L12.4462 2.00187Z" fill="white"/>
</svg>
